# xmcd
#
# Track frame offsets:
#	150
#	10152
#	23048
#	36714
#	48327
#	60717
#	75014
#	88166
#	105221
#	119839
#
# Disc length: 1790 seconds
#
# Revision: 1
# Processed by: cddbd v1.5.2PL0 Copyright (c) Steve Scherf et al.
# Submitted via: audiograbber 1.83.01
#
DISCID=7506fc0a
DTITLE=Various Artist - 30 #1 Country Hits (1of 3)
DYEAR=1900
DGENRE=Country Classics
TTITLE0=Johnny Cash - Ballad of a Teenage Queen
TTITLE1=Merle Haggard -The Fghting Side of ME
TTITLE2=Willie Nelson and Leon Russel - Heartbreak Hotel
TTITLE3=George Jones - She Thinks I Still Care
TTITLE4=Freddy Fender - Wasted Days And Wasted Nights
TTITLE5=Merle Haggard - Branded Man
TTITLE6=Hank Williams - Jambalaya (On te Bayou)
TTITLE7=Glen Capmbell - Southern Nights (live)
TTITLE8=Jeannie C. Riley - Harper Valley P.T.A.
TTITLE9=Ernest Tubb and Conway Twitty - It's Been So Long Darling
EXTD=
EXTT0=
EXTT1=
EXTT2=
EXTT3=
EXTT4=
EXTT5=
EXTT6=
EXTT7=
EXTT8=
EXTT9=
PLAYORDER=
